<?xml version="1.0" encoding="utf-8"?>
<!-- Generator: Adobe Illustrator 27.9.0, SVG Export Plug-In . SVG Version: 6.00 Build 0)  -->
<svg version="1.1" id="Livello_1" xmlns="http://www.w3.org/2000/svg" xmlns:xlink="http://www.w3.org/1999/xlink" x="0px" y="0px"
	 viewBox="0 0 1200 870" style="enable-background:new 0 0 1200 870;" xml:space="preserve">
<style type="text/css">
	.st0{fill:url(#SVGID_1_);}
	.st1{fill:url(#SVGID_00000026131061559696649190000006457005046759765901_);}
	.st2{fill:#282721;}
	.st3{fill:#2D2C25;}
	.st4{fill:#44423A;}
	.st5{fill:#626055;}
	.st6{fill:#716E63;}
	.st7{fill:#918E7F;}
	.st8{fill:#A09B8C;}
	.st9{fill:#B0AA99;}
	.st10{fill:#C9C2AE;}
	.st11{fill:#006633;}
</style>
<g id="copertina">
	
		<linearGradient id="SVGID_1_" gradientUnits="userSpaceOnUse" x1="600" y1="-1264.7706" x2="600" y2="-460.6404" gradientTransform="matrix(1 0 0 -1 0 -412.381)">
		<stop  offset="0" style="stop-color:#301E12"/>
		<stop  offset="0.43" style="stop-color:#311F14"/>
	</linearGradient>
	<path class="st0" d="M10,48.3h1180c5.5,0,10,4.5,10,10v784.1c0,5.5-4.5,10-10,10H10c-5.5,0-10-4.5-10-10V58.3
		C0,52.7,4.5,48.3,10,48.3z"/>
	
		<linearGradient id="SVGID_00000054248446458767212570000014147478992850749829_" gradientUnits="userSpaceOnUse" x1="535.63" y1="-1249.1505" x2="664.37" y2="-1249.1505" gradientTransform="matrix(1 0 0 -1 0 -412.381)">
		<stop  offset="0" style="stop-color:#301E12"/>
		<stop  offset="0.43" style="stop-color:#311F14"/>
	</linearGradient>
	
		<ellipse style="fill:url(#SVGID_00000054248446458767212570000014147478992850749829_);" cx="600" cy="836.8" rx="64.4" ry="33.2"/>
</g>
<g id="Livello_1_00000173137542136908420840000015638672669000516790_">
	<g id="pagina">
		<path class="st2" d="M23.9,68.3c5.8,15.7-1.4,40.7-1.3,57.6c0.1,26.2-2.7,51.9-2.7,78C20,260,9.7,315.8,14.5,371.7
			c7.6,90.3-6.7,180.6-6.7,270.8c0,38.7,6.8,75.7,5.4,114.8c-0.7,18-2.7,36.1,0.1,54c1.7,11-0.2,9.8,10.3,14.3
			c6.2,2.6,16.5,5.2,23.4,3.5c16.7-4.3,40.4-23.5,48-39.3c9.9-20.6,15-48.8,20.1-71.3c6.7-30,8.5-60.9,10.8-91.4
			c3.9-52.8,9.3-104.2,9.3-157.5c0-60.7,7.5-120.8,8-181.3c0.4-46.4,9.4-91.4,9.4-137.7c0-26.2,1.9-64.3-13.7-86.6
			c-24.9-35.8-62.3-34.6-95.6-12.5C37.7,55.3,25.2,62.2,23.9,68.3"/>
		<path class="st3" d="M31.8,69.2c0.1,89.9-10.4,165.6-14.6,254.5c-2.2,46.2-6.9,91.6-2.7,137.8C18.7,509.1,17,558,17.1,606
			c0.1,24.1-4.2,47.8-5.4,72s4.5,46.6,6.8,71c1.8,19.2-4.9,44.2,0.6,62.4c6.3,21.2,37.1,24.7,54.3,17.1
			c23.5-10.4,15.9-37.1,20.2-59.7c5.2-27.1,9-51.5,6.6-79.5c-3.9-45.2-9.2-90.7-12-135.9c-3.1-49.1,0.6-97.3,4.3-146.4
			c7.8-101.7,19.1-203.2,28.1-304.6c2-22.1-1.2-51-21.1-64.2c-17.1-11.3-41.3-5.1-56.3,7.4C34,53.3,31.4,57.2,31.8,69.2"/>
		<path class="st4" d="M42,61.4c0.4,2.1-1.5,48.4-5.2,141.1c-1.9,47.4-10,36-13.1,99.1c-2,40.6,2.4,81.4-2.6,121.7
			c-5,40-8.4,80.9-6.4,121.4c1.9,38.6,4.6,76.7,6.4,115c1.3,29,6.8,58.2,5.4,87.5c-1.1,23.1-0.1,74.3,31.1,76.3
			c14.6,0.9,26.3-4.4,41.2-1.6c15.6,2.8,31.7,6.9,47.3,8.6c33.5,3.8,68.9-5.2,102.9-4.3c30.5,0.8,62.5,0,93.7,0
			c28.1,0,56.5,0.3,84.7-1.3c13.9-0.8,27.1-6.9,40.9-6.7c15,0.2,30,4,45.8,4s26.5-1.8,39-4c22.6-4,34-6.1,39-14.6
			c5-8.5,1.5-19.1-0.4-25c-8.6-27.1-11.3-55.8-18.3-83.3c-6.7-26.5,7.8-24.8-6.7-90.2c-6.8-30.8-11.1-60.9-11-92.5
			c0.1-41.9-10.4-79.6-18.5-120.2c-5.9-29.8-7.7-60.3-13.3-90.1c-10.6-56.3-16.9-110-42.4-162.4c-14.5-29.8-29.2-54.6-59.7-70.4
			c-22.8-11.8-56.3-15.5-81.4-13.4c-26.6,2.2-55.6,0.2-81.8-6c-27.3-6.4-51.7-4-79-5.3c-67.7-3.4-71.1,12.4-103.4,4.2
			c-7.9-2-26.3-7.4-32.5,0.3C40.3,53.3,41.6,59.4,42,61.4L42,61.4z"/>
		<path class="st5" d="M47.2,53.4c2.5,15.7-1.9,31.8-0.8,47.6c1.3,19.5-1.5,28.4-6.7,77.8c-1.4,12.9-5.3,39.8-7.7,93.8
			c-2.4,54.4-10.8,108.7-10.8,163.5s0.2,113.9,5.4,170c2.7,29.8,5.4,59.9,5.3,90.1c0,25.1-4.1,65.8,4.1,89.6
			c10.5,30.5,17.3,29.6,52,28c28.2-1.3,59.3,1,87.4,5.1c29.4,4.2,60.5-6.3,90.9-6.4c14.6-0.1,29.8-1.9,43.9-1.2
			c13.9,0.6,23,1.4,36.6,0.2c26.2-2.2,52.5,5,78.9,6.4c27.2,1.4,58.6-0.6,85.9-4.4c27.8-3.9,55.3-39.1,62.9-65.3
			c7.9-27.2-15.5-68.2-23.4-95.3c-3.3-11.4-3.5-22.7-6-33.9c-2.2-10-8.1-17.9-12.1-27.5c-8.2-19.8-9.6-40.4-10.7-61.4
			c-1.2-23.6-1.9-51.1-8.2-73.9c-14.9-53.7-22.4-106.5-27-162.3c-3.7-45.1,0.8-90.2-8.9-134.9c-5.1-23.7-16.6-50-37.9-63.2
			c-15.2-9.4-33.6-16.2-50.2-22.2c-28.2-10.1-56.8-22.5-86-28.7c-34.1-7.3-69.1-6-103.7-5.3c-10.1,0.2-20.4-1.9-30.4-1.3
			c-11.8,0.7-23,5.2-35,4.5c-23.6-1.3-34.7-8.8-53.3-5c-3.1,0.6-6.1,1.5-11.3,1.9C58.2,40.5,52.7,37,49,40.1
			C45.4,43.2,46.7,50.2,47.2,53.4L47.2,53.4z"/>
		<path class="st6" d="M72.7,46c2.6,5.2,38.4-8.2,45.4-10.7c38.5-13.8,56.5,0.8,116.7-4c59.8-4.8,119.7-20.7,180.5-14.9
			c18.9,1.8,41.8,1.9,58.1,13.4c19.4,13.6,29.8,47.5,38,68.5c13.8,35.3,19.6,74.6,30.2,111.2c10.8,37.1,14.8,78.6,16.8,117.1
			c1.8,36-1.4,71.1-7.1,106.5c-4.3,26.6,0.8,51.6,6.1,77.6c4.2,20.7,5,41.6,8.2,62.6c6,39.1,13.7,37,19.9,68
			c10.3,52-5.4,58.6,5.5,96.2c0,0,5.2,18.1,3.5,51c-0.1,2.7-0.4,6-2.5,9.3c-3.1,5.1-8.4,7-28.6,13.5c-7.5,2.4-11.2,3.6-11.5,3.7
			c-14.8,3.9-27.3,3.4-34.5,3c-22-1.3-38.6-5.2-48.2-6.9c-32.2-5.8-34,3.1-103.7,6.6c-17.2,0.9-34.2,1.4-51.5,1.4
			c-20.2,0-37,3.9-56.4,6.6c-17,2.4-36.2-3.4-52.7,1.4c-21.4,6.3-31.7,8-51.9,0.3c-16.1-6.1-34.5-1.4-50.8-6.2
			c-16.9-4.9-30.6-13.7-39.2-28.6c-17.6-30.4-24.9-67-26.5-101.8c-3.1-66.8-6.7-134-6.7-201.3c0-74.7,14.8-147.9,18.8-222.4
			c1.9-36.8,4-73.2,4-110.1c0-18.2,1.9-36.5,1.3-54.7c-1.3-38.8-6.7-60.8,4.2-67.4c5.9-3.6,16-2.3,17.7,1.4
			C77.3,39.5,71.6,43.8,72.7,46L72.7,46z"/>
		<path class="st7" d="M73.2,35.1c-10.1-16.6-14,65-15.2,72.8c-4.2,28.2-3.9,57-3.9,85.8c0,59.1-3.3,116.8-6.7,175.5
			c-3.1,54.4-2.3,109-5.3,163.7c-3.2,57-5.6,114.1,5.5,170c4.6,23.3,5.5,51.4,6.5,75c0.5,11.6-3.3,26.9,7.7,33.6
			c8.1,4.9,29.2,4.2,38.9,5.6c14.6,2.1,27.2-0.4,41.8-0.3c13.4,0.1,26.4,3.4,40.2,2.7c27.4-1.4,55.6-10.1,83.1-9.4
			c14.2,0.3,20.2,4.7,34.6,0c15.4-5.1,24.3-4.6,40.3-1.3c15.5,3.2,28.3,6.8,44.3,4.1c14.1-2.4,27.6-7.7,41.6-9.4
			c14.2-1.8,28.9,4.2,42.9,5.6c15.4,1.5,30.6,1.8,46.1,2.5c15.1,0.6,30.7,4.9,42.5-1c10.5-5.3,34.8-9.5,39.1-21.4
			c6.1-16.7-12.5-44.3-14-61.9c-1.1-13.5-3.6-26.7,1.3-39.3c3.7-9.4,9.5-15.4,9.8-26.3c0.5-16.6-7.6-24.8-14.2-39.1
			c-10.3-22.6-19.2-46.5-24.8-70.8c-18.3-79.5-37.1-160.2-58-239.2c-11.9-45-41.4-85.3-65-124.7c-19.8-32.9-40.3-65.4-69.2-91.2
			S293.4,50,255,41.2c-10-2.3-20.1-2.6-30.9-1.6c-35.4,3.5-71.8,0.2-106.9,6.4c-12.5,2.2-26.2,5-37.7,9.7"/>
		<path class="st8" d="M75.3,58.4c-4.9-18.7-3-2.8-5.1-3.6C64.8,72,66,92.9,64.5,110.9c-2.1,26.2-7,52.6-8.1,78.8
			c-1.8,42.5-0.7,84.8,1.4,127c1.6,31.3-0.5,63.5-3,94.3c-2.6,31.3-2.3,63.6-5.1,94.8c-5.8,63.4-4.9,131.5-1,195.7
			c1.6,26.6-8,75.2,3,100c10.8,24.2,59.5,14,83.7,15.2c13.4,0.6,27.3,0.9,39.9-2.6c15.9-4.5,24.7-9,42.1-6.5
			c28.5,4.1,58.6-0.5,87.9-1.6c14.4-0.6,27.1-4,41.9-4c14,0,26.3,2.9,39.8,3c29.7,0.1,58.6,6.4,87.3,2.4c28.4-3.9,56.4,8.4,84.2-5.6
			c4.2-2.1,29.2-3.2,33.8-8.2c7.3-8-3.8-25.8-12.1-96.1c-2.7-22.8-7.5-40.1-9.3-57.9c-2.1-20.9-12.4-41.8-13.5-62.7
			c-2.7-49.5-5.3-98-5.3-148.3c0-39.3,1.2-81.5,5.7-120.5c4-34.5,10.7-73.3,4.9-107.8c-9.5-56.4-48.5-101.7-97.7-129.6
			c-29.1-16.5-64.8-28.2-98.4-31.5c-20.6-2-42.8,1.8-63.7,1c-18.1-0.7-36,2.6-54.2,2.3c-12.9-0.2-24.2,2.4-36.9,0.7
			c-12.2-1.6-24.3-3.6-36.5-5.1c-17.6-2.1-34.9-4.6-51.9,1.8c-10.6,4-25-5.2-43.3,4.2"/>
		<path class="st9" d="M74.5,88.1c0,89.8-9.3,179.9-13.4,269.3c-2.6,57.3,0.1,115.1-2.6,172.6c-2.2,46.9-4.2,94.8-4.1,141.3
			c0.1,26-0.5,49.7,3.3,75.5c4.3,28.5-21.3,69.5,11,63.4c48.1-9.1,117.5-3,166.9-7.8c24.5-2.4,48.3-1.4,72.8-1.4
			c25.2,0,51.7,3.8,75.6-1c26.1-5.3,50.4-2.5,76.5,1c24.8,3.4,51.6,17.4,75.2,6.5c9.8-4.5,49.8,2.4,56.8-5.8
			c12.9-15.3-17.8-61.4-18.2-78.8c-0.7-25,2.7-50.3,2.7-75.4c0-19.5,4-42.2-0.1-61.1c-4.7-21.7-11.6-40.1-12-62.7
			c-0.5-29.8,3.2-59.6,6.5-89.1c3.5-31.5-3.7-64.3-9.2-95.2c-8.8-49.6-23.2-102.6-45.5-148c-16.2-33-40.2-54-71.1-73.9
			c-17.8-11.4-33.5-20.7-53.8-26.3c-19.1-5.2-34.6-15.2-53.1-21.8c-15.7-5.6-36.3-9-53-10.4c-13.9-1.2-27.3,3.3-41.4,3.8
			c-21,0.8-38.6-2.9-58.9-5.5c-10.5-1.3-26.9-1.9-37.1,1.4"/>
		<path class="st8" d="M74.3,47.6c-4.6,3.6-5,9.8-5.1,12.1c-2.2,53.4-3.2,80-0.3,91.3c3.1,12.1,7.6,7-4.2,138.6
			C59,354,58.2,420.3,60.6,485.1c1.9,50.2-1.8,100.4,6.7,149.8c5.9,34.5,0.8,67.5,0.5,103c17.9,0.6,64.6,0.6,82.2-1.6
			c10.9-1.4,22.9-6.3,33.9-6.2c11.1,0,20.6,3.5,32.2,1.9c22.8-3.2,43.6-11.6,67-10.3c22,1.2,42.1,8.4,65.6,7.2
			c25.2-1.2,49.4-7.8,75.1-7.5c23.3,0.2,46,4.1,69.4,3.7c17.4-0.3,51.2,5.5,55.1-14.4c4.2-21.3-8.1-42.3-11.1-62.9
			c-4.7-32.1-0.7-65.1-10.3-96.5c-11.9-38.8-26.5-77.2-39.6-115.7c-14.4-42.3-27.7-82.6-38.5-125.8c-6.9-27.9-14.6-55-23.3-81.9
			c-8-24.6-13.1-38.7-16.9-48.5c-8.3-21.2-19.9-47.7-26.5-59.2C348.7,61.6,257.8,62.7,87.1,45C84.9,44.8,78.7,44.2,74.3,47.6
			L74.3,47.6z"/>
		<path class="st10" d="M592.4,22.1C528.1,5.5,474.6,1,436.7,0.2c-28.2-0.6-51.5,0.7-80.5,2.3c-102.7,5.8-90.4,15.2-137,13.2
			c0,0-55,3.8-143.6,6.4c-0.6,0-3.2,0.2-5.1,2.1c-1.3,1.3-2.1,3.1-2.1,5.2v132.2c4.1,84.7,3.1,152.3,1.4,198.5
			c-2.4,67.9-6.9,103.8-6.2,167.1c0.1,14.2,0.7,44.4-1.1,85.9c-1.5,33.2-2.5,29.7-3,53.1c-1.4,65.1,7.1,78,4.3,99.8
			c0,0-3.8,8,3,26.3c2.7,7.2,3.6,7.1,8.8,7.6c40.1,4,80.7,4.7,121,2.5c44.8-2.4,35.7-1.2,53.3-2.5c43.5-3.3,64.4-8.1,91.1-11.6
			c51.9-6.8,91.9-4.4,141.8-1.2c30.6,1.9,67.7,5.6,109.6,12.9c0.5,0,3-0.1,5.1-2.1c1.3-1.3,2.1-3.1,2.1-5.1V29.3
			C599.6,25.3,596.4,22.1,592.4,22.1L592.4,22.1z"/>
		<path class="st2" d="M1174.7,68.3c-5.8,15.7,1.4,40.7,1.3,57.6c-0.1,26.2,2.7,51.9,2.7,78c-0.1,56.1,10.1,111.8,5.4,167.8
			c-7.6,90.3,6.7,180.6,6.7,270.8c0,38.7-6.8,75.7-5.4,114.8c0.7,18,2.7,36.1-0.1,54c-1.7,11,0.2,9.8-10.3,14.3
			c-6.2,2.6-16.5,5.2-23.4,3.5c-16.7-4.3-40.4-23.5-48-39.3c-9.9-20.6-15-48.8-20.1-71.3c-6.7-30-8.5-60.9-10.8-91.4
			c-3.9-52.8-9.3-104.2-9.3-157.5c0-60.7-7.5-120.8-8-181.3c-0.4-46.4-9.4-91.4-9.4-137.7c0-26.2-1.9-64.3,13.7-86.6
			c24.9-35.8,62.3-34.6,95.6-12.5C1160.8,55.3,1173.3,62.2,1174.7,68.3"/>
		<path class="st3" d="M1166.7,69.2c-0.1,89.9,10.4,165.6,14.7,254.5c2.2,46.2,6.9,91.6,2.7,137.8c-4.3,47.5-2.6,96.5-2.7,144.5
			c-0.1,24.1,4.2,47.8,5.4,72c1.2,24.7-4.5,46.6-6.8,71c-1.8,19.2,4.9,44.2-0.6,62.4c-6.3,21.2-37.1,24.7-54.3,17.1
			c-23.5-10.4-15.9-37.1-20.2-59.7c-5.2-27.1-9-51.5-6.6-79.5c3.9-45.2,9.2-90.7,12-135.9c3.1-49.1-0.6-97.3-4.3-146.4
			c-7.8-101.7-19.1-203.2-28.1-304.6c-2-22.1,1.2-51,21.1-64.2c17.1-11.3,41.3-5.1,56.3,7.4C1164.5,53.3,1167.1,57.2,1166.7,69.2"/>
		<path class="st4" d="M1156.5,61.4c-0.4,2.1,1.4,48.4,5.2,141.1c1.9,47.4,9.9,36,13.1,99.1c2,40.6-2.4,81.4,2.7,121.7
			c5,40,8.4,80.9,6.4,121.4c-1.9,38.6-4.6,76.7-6.4,115c-1.3,29-6.8,58.2-5.4,87.5c1.2,23.1,0.2,74.3-31.1,76.3
			c-14.6,0.9-26.3-4.4-41.2-1.6c-15.6,2.8-31.7,6.9-47.3,8.6c-33.5,3.8-68.9-5.2-102.9-4.3c-30.5,0.8-62.5,0-93.7,0
			c-28.1,0-56.5,0.3-84.7-1.3c-13.9-0.8-27.1-6.9-40.9-6.7c-15,0.2-30,4-45.8,4s-26.5-1.8-39-4c-22.6-4-34-6.1-39-14.6
			c-5-8.5-1.5-19.1,0.4-25c8.6-27.1,11.3-55.8,18.3-83.3c6.7-26.5-7.8-24.8,6.7-90.2c6.8-30.8,11.1-60.9,11-92.5
			c-0.1-41.9,10.4-79.6,18.5-120.2c5.9-29.8,7.7-60.3,13.3-90.1c10.6-56.3,16.9-110,42.4-162.4c14.5-29.8,29.2-54.6,59.7-70.4
			c22.8-11.8,56.3-15.5,81.4-13.4c26.7,2.2,55.6,0.2,81.8-6c27.3-6.4,51.7-4,79-5.3c67.7-3.4,71.1,12.4,103.4,4.2
			c7.9-2,26.3-7.4,32.5,0.3C1158.3,53.3,1156.9,59.4,1156.5,61.4L1156.5,61.4z"/>
		<path class="st5" d="M1151.3,53.4c-2.5,15.7,1.9,31.8,0.8,47.6c-1.3,19.5,1.5,28.4,6.7,77.8c1.4,12.9,5.3,39.8,7.7,93.8
			c2.4,54.4,10.8,108.7,10.8,163.5s-0.2,113.9-5.4,170c-2.7,29.8-5.4,59.9-5.3,90.1c0,25.1,4.1,65.8-4.1,89.6
			c-10.5,30.5-17.3,29.6-52,28c-28.2-1.3-59.3,1-87.4,5.1c-29.4,4.2-60.5-6.3-90.9-6.4c-14.6-0.1-29.8-1.9-43.9-1.2
			c-13.9,0.6-23,1.4-36.6,0.2c-26.2-2.2-52.5,5-78.9,6.4c-27.2,1.4-58.6-0.6-85.9-4.4c-27.8-3.9-55.3-39.1-62.9-65.3
			c-7.9-27.2,15.5-68.2,23.4-95.3c3.3-11.4,3.5-22.7,6-33.9c2.2-10,8.1-17.9,12.1-27.5c8.2-19.8,9.6-40.4,10.7-61.4
			c1.2-23.6,1.9-51.1,8.2-73.9c14.9-53.7,22.4-106.5,27-162.3c3.7-45.1-0.8-90.2,8.9-134.9c5.1-23.7,16.6-50,37.9-63.2
			c15.2-9.4,33.6-16.2,50.2-22.2c28.2-10.1,56.8-22.5,86-28.7c34.2-7.3,69.1-6,103.7-5.3c10.1,0.2,20.4-1.9,30.4-1.3
			c11.8,0.7,23,5.2,35,4.5c23.6-1.3,34.7-8.8,53.3-5c3.1,0.6,6.1,1.5,11.3,1.9c12.1,0.8,17.7-2.7,21.4,0.4
			C1153.1,43.2,1151.9,50.2,1151.3,53.4L1151.3,53.4z"/>
		<path class="st6" d="M1125.8,46c-2.6,5.2-38.4-8.2-45.4-10.7c-38.5-13.8-56.5,0.8-116.7-4C903.9,26.5,844,10.6,783.2,16.4
			c-18.9,1.8-41.8,1.9-58.2,13.4c-19.4,13.6-29.8,47.5-38,68.5c-13.8,35.3-19.6,74.6-30.2,111.2c-10.8,37.1-14.8,78.6-16.8,117.1
			c-1.8,36,1.4,71.1,7.1,106.5c4.3,26.6-0.8,51.6-6.1,77.6c-4.2,20.7-5,41.6-8.2,62.6c-6,39.1-13.7,37-19.9,68
			c-10.3,52,5.4,58.6-5.5,96.2c0,0-5.2,18.1-3.5,51c0.1,2.7,0.4,6,2.5,9.3c3.1,5.1,8.4,7,28.6,13.5c7.5,2.4,11.2,3.6,11.5,3.7
			c14.8,3.9,27.3,3.4,34.5,3c22-1.3,38.6-5.2,48.2-6.9c32.2-5.8,34,3.1,103.7,6.6c17.2,0.9,34.2,1.4,51.5,1.4
			c20.2,0,37,3.9,56.4,6.6c17,2.4,36.2-3.4,52.7,1.4c21.5,6.3,31.7,8,51.9,0.3c16.1-6.1,34.5-1.4,50.8-6.2
			c16.9-4.9,30.6-13.7,39.2-28.6c17.6-30.4,24.9-67,26.5-101.8c3.1-66.8,6.7-134,6.7-201.3c0-74.7-14.8-147.9-18.8-222.4
			c-1.9-36.8-4-73.2-4-110.1c0-18.2-1.9-36.5-1.3-54.7c1.3-38.8,6.7-60.8-4.2-67.4c-5.9-3.6-15.9-2.3-17.7,1.4
			C1121.2,39.5,1126.9,43.8,1125.8,46L1125.8,46z"/>
		<path class="st7" d="M1124.7,39.1c10.1-16.9,20.4,50.6,21.6,58.5c4.2,28.6,3.9,57.8,3.9,87.1c0,60,3.3,118.5,6.7,178.1
			c3.1,55.2,2.3,110.7,5.3,166.2s5.6,115.8-5.5,172.6c-4.6,23.6-5.5,52.1-6.5,76.2c-0.5,11.8,3.3,27.3-7.7,34.1
			c-8.1,5-29.2,4.2-38.9,5.7c-14.6,2.1-27.2-0.4-41.8-0.3c-13.4,0.1-26.4,3.4-40.2,2.7c-27.4-1.4-55.6-10.2-83.1-9.5
			c-14.2,0.3-20.2,4.8-34.6,0c-15.4-5.2-24.3-4.7-40.3-1.3c-15.5,3.3-28.3,6.9-44.3,4.2c-14.1-2.4-27.6-7.8-41.7-9.6
			c-14.2-1.8-28.9,4.3-42.9,5.6c-15.4,1.5-30.6,1.9-46.1,2.5c-15.1,0.6-30.7,5-42.5-1c-10.5-5.4-34.8-9.7-39.1-21.7
			c-6.1-17,12.5-45,14-62.8c1.1-13.7,3.6-27.1-1.3-39.9c-3.7-9.6-9.5-15.7-9.8-26.8c-0.5-16.8,7.6-25.1,14.2-39.7
			c10.3-22.9,19.2-47.2,24.8-71.8c18.3-80.7,37.1-162.6,58-242.8c11.9-45.7,41.4-86.6,65-126.6c19.8-33.4,40.3-66.3,69.2-92.6
			c29.5-26.8,70-47.1,108.3-56c10-2.3,20.1-2.7,30.8-1.6c35.4,3.6,71.8,0.2,106.9,6.5c12.5,2.2,26.2,5,37.7,9.8"/>
		<path class="st8" d="M1123.3,58.4c1.6-1.6,4.7-22.6,6.9-23.3c5.4,17.2,2.4,57.8,3.9,75.8c2.1,26.2,7,52.6,8.1,78.8
			c1.8,42.5,0.7,84.8-1.4,127c-1.6,31.3,0.5,63.5,3,94.3c2.6,31.3,2.3,63.6,5.1,94.8c5.8,63.4,4.9,131.5,1,195.7
			c-1.6,26.6,7.9,75.2-3.1,100c-10.8,24.2-59.5,14-83.7,15.2c-13.3,0.6-27.3,0.9-39.9-2.6c-16-4.5-24.7-9-42.1-6.5
			c-28.5,4.1-58.6-0.5-87.9-1.6c-14.4-0.6-27.2-4-41.9-4c-14,0-26.3,2.9-39.8,3c-29.7,0.1-58.6,6.4-87.3,2.4
			c-28.4-3.9-56.5,8.4-84.2-5.6c-4.2-2.1-29.2-3.2-33.8-8.2c-7.3-8,3.8-25.8,12.1-96.1c2.7-22.8,7.5-40.1,9.3-57.9
			c2.1-20.9,12.4-41.8,13.5-62.7c2.7-49.5,5.3-98,5.3-148.3c0-39.3-1.2-81.5-5.7-120.5c-4-34.5-10.7-73.3-4.9-107.8
			c9.5-56.4,48.5-101.7,97.7-129.6c29.2-16.5,64.8-28.2,98.4-31.5c20.6-2,42.8,1.8,63.7,1c18.1-0.7,36,2.6,54.2,2.3
			c12.8-0.2,24.2,2.4,36.9,0.7c12.2-1.6,24.3-3.6,36.5-5.1c17.6-2.1,34.9-4.6,51.9,1.8c10.6,4,27.3,6.3,45.6,15.7"/>
		<path class="st9" d="M1124,80.2c0,89.8,9.3,179.9,13.4,269.3c2.6,57.3-0.1,115.1,2.6,172.6c2.2,46.9,4.2,94.8,4.1,141.3
			c-0.1,26,0.6,49.7-3.3,75.5c-4.3,28.5,21.3,69.5-11,63.4c-48.1-9.1-117.5-3-166.9-7.8c-24.5-2.4-48.3-1.4-72.8-1.4
			c-25.2,0-51.7,3.8-75.6-1c-26.2-5.3-50.4-2.5-76.5,1c-24.8,3.4-51.6,17.4-75.2,6.5c-9.8-4.5-49.8,2.4-56.8-5.8
			c-12.9-15.3,17.8-61.4,18.2-78.8c0.7-25-2.7-50.3-2.7-75.4c0-19.5-4-42.2,0.1-61.1c4.7-21.7,11.6-40.1,12-62.7
			c0.5-29.8-3.2-59.6-6.5-89.1c-3.5-31.5,3.7-64.3,9.2-95.2c8.8-49.6,23.2-102.6,45.5-148c16.2-33,40.2-54,71.1-73.9
			c17.8-11.4,33.5-20.7,53.8-26.3c19.1-5.2,34.6-15.2,53.1-21.8c15.7-5.6,36.3-9,53-10.4c13.9-1.2,27.3,3.3,41.4,3.8
			c21,0.8,38.6-2.9,58.9-5.5c10.5-1.3,26.9-1.9,37.1,1.4"/>
		<path class="st8" d="M1124.2,47.6c4.6,3.6,5,9.8,5.1,12.1c2.2,53.4,3.2,80,0.3,91.3c-3.1,12.1-7.6,7,4.2,138.6
			c5.8,64.4,6.6,130.7,4.2,195.5c-1.9,50.2,1.8,100.4-6.7,149.8c-5.9,34.5-0.8,67.5-0.5,103c-17.9,0.6-64.6,0.6-82.2-1.6
			c-10.9-1.4-22.8-6.3-33.9-6.2c-11.1,0-20.6,3.5-32.2,1.9c-22.8-3.2-43.6-11.6-67-10.3c-22,1.2-42.2,8.4-65.6,7.2
			c-25.2-1.2-49.4-7.8-75.1-7.5c-23.3,0.2-46,4.1-69.4,3.7c-17.4-0.3-51.2,5.5-55.1-14.4c-4.2-21.3,8.1-42.3,11.1-62.9
			c4.7-32.1,0.7-65.1,10.3-96.5c11.9-38.8,26.5-77.2,39.6-115.7c14.4-42.3,27.7-82.6,38.5-125.8c6.9-27.9,14.6-55,23.3-81.9
			c8-24.6,13.1-38.7,16.9-48.5c8.3-21.2,19.9-47.7,26.5-59.2c33.5-58.4,124.5-57.3,295.1-75C1113.6,44.8,1119.8,44.2,1124.2,47.6
			L1124.2,47.6z"/>
		<path class="st10" d="M606.1,22.1C670.5,5.5,723.9,1,761.8,0.2c28.2-0.6,51.5,0.7,80.5,2.3c102.7,5.8,90.5,15.2,137,13.2
			c0,0,55,3.8,143.5,6.4c0.6,0,3.2,0.2,5.1,2.1c1.3,1.3,2.1,3.1,2.1,5.2v132.2c-4.1,84.7-3.1,152.3-1.4,198.5
			c2.4,67.9,6.9,103.8,6.2,167.1c-0.1,14.2-0.7,44.4,1.1,85.9c1.5,33.2,2.5,29.7,3,53.1c1.4,65.1-7.1,78-4.3,99.8c0,0,3.8,8-3,26.3
			c-2.7,7.2-3.6,7.1-8.8,7.6c-40.1,4-80.7,4.7-121,2.5c-44.8-2.4-35.7-1.2-53.3-2.5c-43.5-3.3-64.4-8.1-91.1-11.6
			c-51.9-6.8-91.9-4.4-141.8-1.2c-30.6,1.9-67.7,5.6-109.6,12.9c-0.5,0-3-0.1-5.1-2.1c-1.3-1.3-2.1-3.1-2.1-5.1V29.3
			C598.9,25.3,602.1,22.1,606.1,22.1L606.1,22.1z"/>
	</g>
	<polygon class="st11" points="1087.5,101.9 1065,83.4 1042.5,101.9 1042.5,9.6 1087.5,9.6 	"/>
</g>
</svg>
