<?xml version="1.0" encoding="utf-8"?>
<!-- Generator: Adobe Illustrator 27.9.0, SVG Export Plug-In . SVG Version: 6.00 Build 0)  -->
<svg version="1.1" id="Livello_7" xmlns="http://www.w3.org/2000/svg" xmlns:xlink="http://www.w3.org/1999/xlink" x="0px" y="0px"
	 viewBox="0 0 784.7 616.7" style="enable-background:new 0 0 784.7 616.7;" xml:space="preserve">
<style type="text/css">
	.st0{stroke:#010400;stroke-width:10;stroke-miterlimit:10;}
	.st1{fill:none;stroke:#37451C;stroke-width:14;stroke-miterlimit:10;}
	.st2{fill:#FFFFFF;}
	.st3{fill:#37451C;stroke:#37451C;stroke-width:10;stroke-miterlimit:10;}
</style>
<g id="Livello_4">
	<path class="st0" d="M140.4,522.9c7,7.9,34.7-6.2,44.3-11c85.4-43.2,190.6-157.1,256.2-217.1c47.3-43.3,220.3-192.4,247.8-251
		c2.7-5.8,10.7-22.9,4.3-29.7c-6.8-7.3-26.6,0.9-33.3,3.7c-64.1,26.6-225.1,184.9-267.2,224.5c-62.8,59-169.7,144.5-229.7,229.2
		C133.7,512.5,138.6,520.9,140.4,522.9L140.4,522.9z"/>
	<path class="st0" d="M153.6,482.4c-9.6,2.7-15,2.1-29.9,11.4c0,0-9.7,6-18.6,14.3c-28.5,26.8-29.8,81.2-30,89.4
		c5.1-8,20.4-29.5,48.1-37.1c7.9-2.2,15.2-2.8,21.4-2.7c14.9-17.9,21.5-24.6,36.4-42.5"/>
</g>
<path class="st1" d="M178.8,368.2l92.9-14.9c2.1-0.3,4,1.1,4.3,3.1l0.1,0.6c0.3,2.1-1.1,4-3.1,4.3l-92.9,14.9
	c-2.1,0.3-4-1.1-4.3-3.1l-0.1-0.6C175.4,370.5,176.8,368.5,178.8,368.2z"/>
<path class="st2" d="M256.1,353.6l39.2,51.4c8.7,11.4,20.3,20.3,33.6,25.8l114.4,47c11.5,4.7,24,6.7,36.4,5.9l99.8-7
	c10-0.7,18.8-7.1,22.5-16.4l0,0c4.9-12.2-0.1-26.2-11.5-32.6L331.1,282.4c-9.2-5.2-20.7-4.3-29,2.3l-41.3,32.5
	C249.5,326,247.4,342.2,256.1,353.6L256.1,353.6z"/>
<path class="st2" d="M362.3,247.7l188.9,35.1c6.9,1.3,13.2,4.7,18.1,9.7l78.4,80.4c11.1,11.3,12.8,28.8,4.2,42.1l0,0
	c-8.2,12.8-24,18.5-38.5,14l-213.2-65.9c-4.4-1.3-8.2-4-11-7.6l-55.9-71c-11-13.9-2.3-34.4,15.3-36.3l7.3-0.8
	C357.9,247.2,360.1,247.3,362.3,247.7L362.3,247.7z"/>
<path class="st3" d="M266.6,342.9l39.3,51.4c8.7,11.4,20.3,20.3,33.6,25.8l114.4,47c11.5,4.7,24,6.7,36.4,5.9l99.8-7
	c10-0.7,18.8-7.1,22.5-16.4l0,0c4.9-12.2-0.1-26.2-11.5-32.6L341.6,271.6c-9.2-5.2-20.7-4.3-29,2.3l-41.3,32.5
	C260,315.2,257.9,331.5,266.6,342.9L266.6,342.9z"/>
<path class="st3" d="M192.7,147.5c-1.3-0.5-28.1-14.4-49.5-4.5c-27.5,12.7-32.1,50-35.8,69.1c-0.6,3.2-6.5,45.6,16.6,69.7
	c6,6.3,11.9,7.5,13.8,7.9c7.7,1.6,21.5,0.9,32.1-8c0.7-0.6,1.6-1.4,2.5-2.3c0.5-0.5,1.3-1.4,2.3-2.3c7.1-7.4,25-26,36.3-46.2
	c11.4-20.2,19.8-35.3,14.4-50.9C220.7,165.9,206,152.6,192.7,147.5L192.7,147.5z"/>
<path class="st2" d="M353.3,272.2l188.9,35.1c6.9,1.3,13.2,4.7,18.1,9.7l78.4,80.4c11.1,11.3,12.8,28.8,4.2,42.1l0,0
	c-8.2,12.8-24,18.5-38.5,14l-213.2-65.9c-4.4-1.3-8.2-4-11-7.6l-55.9-71c-11-13.9-2.3-34.4,15.3-36.3l7.3-0.8
	C349,271.7,351.2,271.8,353.3,272.2L353.3,272.2z"/>
<path class="st2" d="M370.6,423.7l1.8,0.7c12.7,5,27.1,2.1,36.8-7.4l192-186.6c5.2-5-1.2-13.2-7.3-9.4L365.2,362
	C340.9,377,344.1,413.2,370.6,423.7L370.6,423.7z"/>
<path class="st3" d="M362.3,260.5l188.9,35.1c6.9,1.3,13.2,4.7,18.1,9.7l78.4,80.4c11.1,11.3,12.8,28.8,4.2,42.1l0,0
	c-8.2,12.8-24,18.5-38.5,14l-213.2-65.9c-4.4-1.3-8.2-4-11-7.6l-55.9-71c-11-13.9-2.3-34.4,15.3-36.3l7.3-0.8
	C357.9,260,360.1,260.1,362.3,260.5L362.3,260.5z"/>
<path class="st2" d="M245,179.1c1.4,5.6,2.7,13.9,2,23.8c-0.2,2.7-1.4,15.2-9.8,31.6c-6.5,12.8-12.7,18.5-38.5,52.8
	c-3.4,4.5-4.5,6-5.2,8.8c-5.5,21.4,29.7,56.4,52.1,50.5c3.4-0.9,5.5-2.5,9.8-5.9c28.2-22.7,28.7-30.8,43.7-40.8
	c4-2.7,26.8-17.7,49.5-16c3.1,0.2,9.9,1.1,17.9-1.6c6.6-2.2,14.5-6.9,17.3-11.7c9.6-16.5-22-65.4-67.5-84.8
	C287.8,173.8,260.5,176.3,245,179.1L245,179.1z"/>
<path class="st2" d="M390.6,433.5l1.8,0.7c12.7,5,27.1,2.1,36.8-7.4l192-186.6c5.2-5-1.2-13.2-7.3-9.4l-228.7,141
	C360.9,386.9,364.1,423,390.6,433.5L390.6,433.5z"/>
<path class="st3" d="M252.7,169c-6.6,0.6-11.4,6.5-10.9,13.1c0.3,3.8,0.4,7.9,0.1,12.5c-0.2,2.7-1.4,15.2-9.8,31.6
	c-6.5,12.8-12.7,18.5-38.5,52.8c-3.4,4.5-4.5,6-5.2,8.8c-5.5,21.4,29.7,56.4,52.1,50.5c3.4-0.9,5.5-2.5,9.8-5.9
	c28.2-22.7,28.7-30.8,43.7-40.8c4-2.7,26.8-17.7,49.5-16c3.1,0.2,9.9,1.1,17.9-1.6c6.6-2.2,14.5-6.9,17.3-11.7
	c9.6-16.5-22-65.4-67.5-84.8C289.5,168.3,268.4,167.5,252.7,169L252.7,169z"/>
<path class="st3" d="M380.5,423.7l1.8,0.7c12.7,5,27.1,2.1,36.8-7.4l192-186.6c5.2-5-1.2-13.2-7.3-9.4L375.1,362
	C350.9,377,354.1,413.2,380.5,423.7L380.5,423.7z"/>
<ellipse class="st3" cx="748.3" cy="492" rx="27.2" ry="8.8"/>
<path class="st3" d="M605.7,220.7c8.6-3.7,21.6,7.5,29.1,25c3.2,7.4,27.6,49.9,46.4,99.2c25.5,67,46.3,144.9,41.3,147
	s-17.9-63-49.3-128c-22.7-47-55.1-98.9-60.4-106.2C601.7,242.3,597.2,224.4,605.7,220.7z"/>
<ellipse transform="matrix(0.4071 -0.9134 0.9134 0.4071 -62.3667 253.6592)" class="st2" cx="164.2" cy="174.9" rx="18" ry="13.5"/>
<path class="st1" d="M33.5,33.8c6.5-1.5,41.6-8.7,74.4,17.2c39.2,30.9,41.4,82.7,41.5,88.4"/>
<path class="st1" d="M16,53.9c6.5-1.5,41.6-8.7,74.4,17.2c39.2,31,41.4,82.7,41.5,88.4"/>
<path class="st1" d="M186.5,442.9l-11.3-70.2c-0.3-2.1,1.1-4,3.1-4.3l0.6-0.1c2.1-0.3,4,1.1,4.3,3.1l11.3,70.2
	c0.3,2.1-1.1,4-3.1,4.3l-0.6,0.1C188.8,446.3,186.8,444.9,186.5,442.9z"/>
<path class="st1" d="M173.9,465l15.5-20.3c1.3-1.7,3.6-2,5.3-0.7l0.5,0.4c1.7,1.3,2,3.6,0.7,5.3L180.4,470c-1.3,1.7-3.6,2-5.3,0.7
	l-0.5-0.4C173,469,172.6,466.7,173.9,465z"/>
</svg>
